<?xml version="1.0" standalone="no"?>
<!DOCTYPE svg PUBLIC "-//W3C//DTD SVG 20010904//EN"
 "http://www.w3.org/TR/2001/REC-SVG-20010904/DTD/svg10.dtd">
<svg version="1.0" xmlns="http://www.w3.org/2000/svg"
 width="626.000000pt" height="626.000000pt" viewBox="0 0 626.000000 626.000000"
 preserveAspectRatio="xMidYMid meet">
<metadata>
Created by potrace 1.11, written by Peter Selinger 2001-2013
</metadata>
<g transform="translate(0.000000,626.000000) scale(0.100000,-0.100000)"
fill="#000000" stroke="none">
<path d="M2975 4305 c-22 -8 -52 -27 -66 -44 -23 -25 -34 -29 -79 -29 -63 -1
-121 -34 -147 -87 -10 -19 -39 -48 -64 -64 -54 -34 -89 -96 -89 -157 0 -31 -6
-46 -26 -65 -40 -37 -57 -86 -49 -144 8 -65 8 -90 0 -147 -6 -38 -3 -55 15
-92 12 -26 31 -51 41 -57 14 -7 19 -21 19 -53 0 -78 44 -149 110 -176 16 -7
32 -22 36 -34 9 -31 54 -76 91 -92 18 -8 53 -14 77 -14 34 0 48 -5 56 -19 17
-33 74 -61 124 -61 l46 0 0 -50 c0 -56 -7 -61 -38 -27 -12 13 -42 34 -67 46
-207 103 -436 -6 -471 -226 -16 -99 56 -219 157 -262 62 -27 89 -24 109 11 19
35 7 56 -46 82 -54 25 -74 45 -96 93 -42 93 35 206 154 228 97 18 211 -47 259
-148 35 -75 37 -121 7 -207 -26 -77 -95 -153 -172 -189 -174 -81 -415 7 -520
190 -20 35 -55 127 -56 146 0 2 18 12 40 23 78 40 108 95 109 199 1 77 -31
221 -62 276 -19 34 -27 40 -57 40 -30 0 -37 -5 -66 -55 -18 -30 -60 -79 -94
-109 -96 -83 -134 -187 -96 -260 15 -29 90 -101 105 -101 4 0 14 -28 21 -62
45 -230 279 -427 508 -428 62 0 67 -12 13 -33 -323 -130 -692 28 -864 370 -52
102 -85 288 -70 388 l8 50 55 5 c106 11 139 48 184 212 11 37 30 73 56 103 71
82 48 124 -70 129 l-73 2 -12 46 c-19 75 -99 153 -169 165 -45 7 -66 -16 -66
-73 0 -62 -25 -108 -53 -99 -100 30 -147 32 -170 7 -23 -25 -21 -40 8 -105 21
-45 26 -74 28 -149 4 -125 24 -164 104 -203 l58 -28 0 -146 0 -146 -814 -3
c-749 -2 -816 -3 -833 -19 -26 -23 -20 -64 12 -80 19 -10 208 -13 850 -13
l825 -1 51 -104 52 -105 -884 0 c-871 0 -884 0 -904 -20 -24 -24 -26 -53 -4
-74 14 -14 114 -16 951 -16 l936 0 51 -43 c105 -89 200 -141 331 -180 102 -31
302 -31 397 0 141 46 264 128 341 228 l42 55 5 -166 c5 -149 7 -167 24 -180
27 -19 50 -18 69 4 13 15 16 45 18 175 0 86 4 157 7 157 4 0 32 -29 62 -64 51
-58 162 -143 235 -179 17 -8 68 -24 114 -36 204 -51 429 -6 621 124 36 25 79
58 95 75 l29 30 942 0 c844 0 944 2 958 16 22 21 20 50 -4 74 -20 20 -33 20
-910 20 l-890 0 24 39 c14 21 38 68 55 105 l30 66 825 0 c505 0 835 4 850 10
34 12 44 54 21 80 -18 19 -39 20 -838 22 l-820 3 -1 145 -1 146 60 29 c82 41
105 85 105 205 0 69 5 95 25 138 30 64 31 93 7 115 -26 24 -72 21 -168 -8 -17
-5 -23 1 -37 32 -10 21 -16 55 -15 75 3 73 -46 88 -123 39 -63 -40 -89 -72
-109 -133 -16 -50 -19 -53 -51 -54 -86 -1 -107 -5 -127 -24 -31 -30 -27 -55
17 -103 47 -52 57 -70 66 -127 19 -116 90 -190 182 -190 l52 0 7 -57 c15 -124
-18 -292 -82 -412 -92 -170 -250 -302 -436 -362 -79 -26 -229 -36 -295 -20
-71 17 -163 52 -163 62 0 5 23 9 51 9 127 0 257 58 364 164 82 81 140 183 151
269 6 42 12 52 44 72 48 30 76 69 90 127 10 40 9 52 -9 92 -11 26 -57 86 -103
135 -46 48 -92 103 -103 122 -15 26 -28 35 -52 37 -29 3 -34 -1 -54 -39 -29
-57 -59 -168 -66 -245 -11 -114 44 -220 123 -240 24 -6 25 -9 18 -48 -10 -61
-59 -148 -115 -205 -223 -222 -577 -146 -638 137 -27 126 54 259 180 296 65
20 86 20 137 2 104 -37 159 -144 116 -229 -20 -39 -46 -61 -101 -86 -48 -22
-62 -51 -39 -86 20 -30 54 -32 112 -6 94 43 154 134 154 236 0 104 -73 215
-175 265 -41 21 -65 25 -135 25 -73 0 -93 -4 -143 -28 -32 -16 -71 -40 -87
-54 -34 -28 -44 -19 -38 37 3 30 6 32 44 35 49 4 90 23 123 59 19 21 34 26 70
26 63 0 120 34 150 89 13 23 31 45 40 48 63 23 111 94 111 165 0 35 6 48 37
80 36 37 37 41 37 106 0 37 -2 78 -3 92 -1 14 1 48 5 77 9 68 1 95 -40 141
-27 30 -34 47 -38 94 -5 68 -39 118 -99 148 -21 11 -39 27 -39 34 0 21 -48 74
-82 92 -16 9 -54 15 -83 15 -45 0 -55 4 -61 21 -7 23 -96 68 -134 67 -14 0
-41 -6 -60 -13 -29 -10 -41 -10 -65 0 -39 17 -71 16 -120 -1z m98 -115 c14
-11 37 -20 52 -20 15 0 38 9 52 20 14 11 33 20 43 20 22 0 56 -38 64 -72 8
-35 35 -43 97 -27 62 16 79 8 99 -52 13 -38 22 -46 60 -60 26 -10 51 -27 60
-42 13 -23 12 -29 -4 -60 -28 -51 -16 -81 38 -102 58 -22 68 -56 35 -113 l-23
-40 24 -46 c23 -43 24 -48 10 -73 -8 -14 -28 -31 -45 -36 -59 -19 -68 -42 -39
-99 28 -55 8 -86 -69 -103 -28 -6 -40 -24 -52 -78 -9 -42 -45 -54 -94 -33 -55
25 -72 18 -101 -39 -21 -43 -30 -50 -58 -53 -21 -2 -41 4 -58 17 -33 26 -45
26 -77 1 -48 -38 -117 -15 -117 39 0 22 -31 51 -55 51 -11 0 -30 -7 -41 -15
-10 -8 -28 -15 -40 -15 -28 0 -64 36 -64 64 0 29 -28 54 -74 67 -50 14 -67 49
-43 91 32 56 19 91 -40 107 -15 4 -35 20 -43 34 -14 25 -13 30 8 67 27 49 28
64 0 102 -30 43 -16 76 45 105 39 19 47 27 47 50 -1 16 -7 39 -15 53 -8 14
-14 31 -15 38 0 22 48 62 74 62 32 0 56 25 56 59 0 40 31 65 72 57 115 -21
106 -23 127 27 29 67 60 81 104 47z m-1257 -826 c-4 -53 -2 -64 16 -84 14 -15
27 -20 42 -16 66 19 69 19 63 5 -3 -8 -11 -32 -17 -54 -6 -22 -16 -57 -22 -77
-19 -64 -35 -72 -135 -64 -94 8 -128 22 -143 61 -9 24 -12 185 -3 185 2 0 15
-7 28 -16 52 -34 72 -16 129 115 18 42 20 43 33 25 11 -14 13 -35 9 -80z
m2685 7 c11 -31 25 -61 31 -68 14 -17 50 -16 74 2 35 27 39 18 36 -78 -4 -120
-14 -135 -102 -147 -36 -5 -84 -10 -108 -10 -37 0 -45 4 -62 32 -11 18 -22 53
-26 78 -4 25 -13 58 -21 74 -16 32 -21 31 54 10 14 -4 28 1 43 16 18 18 20 28
15 73 -4 31 -2 64 5 82 11 29 12 29 26 11 8 -11 23 -45 35 -75z m-2174 -494
c-2 -37 -9 -64 -20 -74 -16 -16 -17 -15 -17 15 0 66 -90 81 -106 17 -8 -31
-24 -23 -24 12 0 18 21 47 73 100 l72 75 13 -44 c7 -23 11 -69 9 -101z m1690
71 c76 -79 87 -99 68 -124 -14 -18 -14 -18 -15 3 0 32 -40 56 -72 44 -27 -10
-38 -29 -38 -64 0 -37 -31 4 -37 50 -5 41 13 153 25 153 4 0 35 -28 69 -62z"/>
<path d="M3016 4015 c-111 -31 -217 -136 -256 -249 -83 -246 105 -507 364
-507 291 0 478 300 348 557 -66 130 -184 206 -327 211 -47 1 -100 -3 -129 -12z
m122 -106 c-2 -6 -8 -10 -13 -10 -5 0 -11 4 -13 10 -2 6 4 11 13 11 9 0 15 -5
13 -11z m-123 -69 l29 -30 -39 -40 c-22 -22 -42 -40 -46 -40 -10 0 -59 52 -59
62 0 13 65 78 77 78 5 0 22 -14 38 -30z m309 -7 l37 -37 -36 -35 -35 -36 -42
42 -42 43 29 30 c16 16 34 30 40 30 7 0 28 -17 49 -37z m-156 -230 c-46 -47
-40 -48 -105 16 l-25 24 43 43 43 44 43 -42 43 -42 -42 -43z m232 40 c0 -20
-3 -24 -11 -16 -7 7 -9 19 -6 27 10 24 17 19 17 -11z m-530 2 c0 -8 -4 -15
-10 -15 -5 0 -10 7 -10 15 0 8 5 15 10 15 6 0 10 -7 10 -15z m135 -125 l39
-40 -34 -35 -34 -35 -38 37 c-21 20 -38 42 -38 47 0 11 50 66 60 66 3 0 24
-18 45 -40z m317 13 c15 -15 28 -35 28 -44 0 -15 -78 -88 -83 -78 -1 2 -15 19
-31 37 l-30 32 39 40 c22 22 41 40 44 40 3 0 18 -12 33 -27z m-182 -154 c0 -5
-7 -9 -15 -9 -15 0 -20 12 -9 23 8 8 24 -1 24 -14z"/>
</g>
</svg>
